<?xml version="1.0" standalone="no"?>
<!DOCTYPE svg PUBLIC "-//W3C//DTD SVG 20010904//EN"
 "http://www.w3.org/TR/2001/REC-SVG-20010904/DTD/svg10.dtd">
<svg version="1.0" xmlns="http://www.w3.org/2000/svg"
 width="1024.000000pt" height="1024.000000pt" viewBox="0 0 1024.000000 1024.000000"
 preserveAspectRatio="xMidYMid meet">
<metadata>
Created by potrace 1.14, written by Peter Selinger 2001-2017
</metadata>
<g transform="translate(0.000000,1024.000000) scale(0.100000,-0.100000)"
fill="#000000" stroke="none">
<path d="M0 5120 l0 -5120 5120 0 5120 0 0 5120 0 5120 -5120 0 -5120 0 0
-5120z m3387 2051 c527 -80 823 -275 1013 -665 47 -97 135 -344 126 -353 -8
-8 -682 -121 -687 -115 -4 4 -14 34 -24 67 -29 106 -91 220 -156 290 -75 80
-148 125 -265 164 -316 106 -818 88 -1081 -40 -177 -85 -263 -221 -263 -414 0
-177 79 -290 272 -390 115 -60 254 -104 522 -165 862 -199 1172 -308 1401
-497 146 -120 269 -316 316 -503 27 -108 37 -370 19 -492 -72 -493 -458 -840
-1072 -962 -213 -43 -315 -51 -623 -50 -312 0 -420 10 -644 60 -490 109 -829
370 -987 758 -38 93 -81 236 -86 286 l-3 34 315 63 c173 35 326 62 339 61 20
-3 27 -15 50 -93 36 -119 61 -174 116 -251 125 -174 375 -291 695 -325 146
-15 496 -6 613 15 420 79 629 292 604 616 -10 121 -38 183 -121 265 -127 126
-244 170 -796 301 -568 135 -792 201 -983 288 -103 47 -256 148 -334 220 -209
193 -314 467 -300 781 11 231 68 409 180 561 207 281 581 456 1078 504 164 15
615 4 766 -19z m2643 -163 c29 -73 101 -261 160 -418 60 -157 156 -409 215
-560 59 -151 138 -358 177 -460 38 -102 159 -417 268 -700 108 -283 212 -564
230 -625 18 -60 35 -116 39 -124 5 -8 25 40 53 125 25 77 155 427 287 779 133
352 332 879 441 1170 110 292 235 622 278 735 l78 205 412 3 412 2 -2 -2022
-3 -2023 -320 0 -320 0 -3 1405 -3 1405 -61 -160 c-34 -88 -157 -414 -275
-725 -118 -311 -297 -783 -399 -1050 -101 -267 -217 -573 -257 -680 l-73 -195
-242 -3 -243 -2 -19 42 c-10 24 -71 180 -135 348 -65 168 -178 463 -252 655
-74 193 -193 501 -263 685 -70 184 -183 477 -250 650 -67 173 -134 351 -148
395 l-27 80 -3 -1427 -2 -1428 -320 0 -320 0 0 2025 0 2025 419 0 420 0 51
-132z"/>
</g>
</svg>
